<svg xmlns="http://www.w3.org/2000/svg" data-name="Layer 1" viewBox="0 0 100 125" x="0px" y="0px"><title>Artboard 28</title><path d="M98.17,91v5.31a2.26,2.26,0,0,1-2.26,2.26H4.08a2.26,2.26,0,0,1-2.26-2.26V91a16.06,16.06,0,0,1,9.91-14.83,10.95,10.95,0,1,1,12.3,0,16.1,16.1,0,0,1,5.86,4.2,21.7,21.7,0,0,1,11.81-12,14.76,14.76,0,1,1,16.59,0,21.7,21.7,0,0,1,11.81,12A16.09,16.09,0,0,1,76,76.12a10.95,10.95,0,1,1,12.31,0A16.06,16.06,0,0,1,98.17,91ZM52.67,1.48H47.33A2.63,2.63,0,0,0,44.7,4.11V18.71H42.85a2.15,2.15,0,0,0-1.75,3.41l7.15,10a2.15,2.15,0,0,0,3.5,0l7.15-10a2.15,2.15,0,0,0-1.75-3.41H55.3V4.11A2.63,2.63,0,0,0,52.67,1.48ZM13.94,34.58A2.14,2.14,0,0,0,15.63,36l12.11,2a2.15,2.15,0,0,0,2.48-2.47l-2-12.12a2.15,2.15,0,0,0-3.65-1.17l-1.31,1.31L12.94,13.26a2.63,2.63,0,0,0-3.72,0L5.44,17a2.63,2.63,0,0,0,0,3.72L15.77,31.08,14.46,32.4A2.14,2.14,0,0,0,13.94,34.58ZM94.56,17l-3.78-3.78a2.63,2.63,0,0,0-3.72,0L76.73,23.59l-1.31-1.31a2.15,2.15,0,0,0-3.65,1.17l-2,12.11A2.15,2.15,0,0,0,72.25,38l12.12-2a2.15,2.15,0,0,0,1.17-3.65l-1.31-1.31L94.56,20.76A2.63,2.63,0,0,0,94.56,17Z"/><text x="0" y="115" fill="#000000" font-size="5px" font-weight="bold" font-family="'Helvetica Neue', Helvetica, Arial-Unicode, Arial, Sans-serif">Created by Gregor Črešnar</text><text x="0" y="120" fill="#000000" font-size="5px" font-weight="bold" font-family="'Helvetica Neue', Helvetica, Arial-Unicode, Arial, Sans-serif">from the Noun Project</text></svg>