<svg xmlns="http://www.w3.org/2000/svg" xmlns:xlink="http://www.w3.org/1999/xlink" version="1.1" x="0px" y="0px" viewBox="0 0 100 125" style="enable-background:new 0 0 100 100;" xml:space="preserve"><style type="text/css">
	.st0{display:none;}
	.st1{display:inline;}
	.st2{fill:none;}
	.st3{fill:#010101;}
	.st4{fill:none;stroke:#000000;stroke-miterlimit:10;}
	.st5{fill:#FFFFFF;}
	.st6{fill:none;stroke:#010101;stroke-miterlimit:10;}
	.st7{fill:none;stroke:#000000;stroke-width:1.5;stroke-linecap:square;stroke-miterlimit:10;stroke-dasharray:0,3;}
	.st8{fill:none;stroke:#FFFFFF;stroke-width:0.25;stroke-miterlimit:10;}
	.st9{fill:none;stroke:#000000;stroke-width:1.2;stroke-miterlimit:10;}
	.st10{fill:none;stroke:#000000;stroke-width:2;stroke-miterlimit:10;}
	.st11{fill:#FFFFFF;stroke:#000000;stroke-width:2;stroke-miterlimit:10;}
	.st12{stroke:#000000;stroke-width:0.75;stroke-miterlimit:10;}
	.st13{fill:none;stroke:#000000;stroke-width:3;stroke-miterlimit:10;}
	.st14{stroke:#000000;stroke-miterlimit:10;}
</style><g><g><g><path d="M81.9,30.7l-0.1,1.1l0.4,0.4l-7.9,9.3c-0.2-0.6,0.2-1.2,0.2-1.3l0.1-0.1l-0.7-0.4l-0.1,0.1c-0.3,0.5-0.5,1.7,0,2.7     l0.3,0.5l9.2-10.9l0.1-0.1L81.9,30.7z"/></g><path class="st2" d="M53.1,27.3v24.4l0,0l-2.7,2.7V27.3l-4.5-4.4H18.4v49h28.1l3.9,3.5V61.9l0.6-0.2l2.1-2.1v15.8l3.9-3.5h28.1    V32.1v-9.2H57.6L53.1,27.3z M21.4,32.6h0.2c0.7,0,1-0.3,1.4-0.7c0.5-0.5,1.1-1.1,2.4-1.1c1.2,0,1.9,0.6,2.4,1.1    c0.4,0.4,0.7,0.7,1.4,0.7c0.7,0,1-0.3,1.4-0.7c0.5-0.5,1.1-1.1,2.4-1.1s1.9,0.6,2.4,1.1c0.5,0.4,0.8,0.7,1.4,0.7s1-0.3,1.4-0.7    c0.5-0.5,1.1-1.1,2.4-1.1c1.2,0,1.9,0.6,2.4,1.1c0.5,0.4,0.8,0.7,1.4,0.7h0.2v1.4h-0.2c-1.2,0-1.8-0.6-2.3-1.1    c-0.5-0.4-0.8-0.7-1.5-0.7c-0.7,0-1,0.3-1.4,0.7c-0.5,0.5-1.2,1.1-2.4,1.1c-1.2,0-1.8-0.6-2.3-1.1c-0.5-0.4-0.8-0.7-1.4-0.7    c-0.7,0-1,0.3-1.4,0.7c-0.5,0.5-1.2,1.1-2.4,1.1c-1.2,0-1.8-0.6-2.3-1.1c-0.5-0.4-0.8-0.7-1.5-0.7c-0.7,0-1,0.3-1.4,0.7    c-0.5,0.5-1.2,1.1-2.4,1.1h-0.2V32.6z M21.4,38.9h0.2c0.7,0,1-0.3,1.4-0.7c0.5-0.5,1.1-1.1,2.4-1.1c1.2,0,1.9,0.6,2.4,1.1    c0.4,0.4,0.7,0.7,1.4,0.7c0.7,0,1-0.3,1.4-0.7c0.5-0.5,1.1-1.1,2.4-1.1s1.9,0.6,2.4,1.1c0.5,0.4,0.8,0.7,1.4,0.7s1-0.3,1.4-0.7    c0.5-0.5,1.1-1.1,2.4-1.1c1.2,0,1.9,0.6,2.4,1.1c0.5,0.4,0.8,0.7,1.4,0.7h0.2v1.3h-0.2c-1.2,0-1.8-0.6-2.3-1.1    c-0.5-0.5-0.8-0.7-1.5-0.7c-0.7,0-1,0.3-1.4,0.7c-0.5,0.5-1.2,1.1-2.4,1.1c-1.2,0-1.8-0.6-2.3-1.1c-0.5-0.4-0.8-0.7-1.4-0.7    c-0.7,0-1,0.3-1.4,0.7c-0.5,0.5-1.2,1.1-2.4,1.1c-1.2,0-1.8-0.6-2.3-1.1c-0.5-0.5-0.8-0.7-1.5-0.7c-0.7,0-1,0.3-1.4,0.7    c-0.5,0.5-1.2,1.1-2.4,1.1h-0.2V38.9z M21.4,45.1h0.2c0.7,0,1-0.3,1.4-0.7c0.5-0.5,1.1-1.1,2.4-1.1c1.2,0,1.9,0.6,2.4,1.1    c0.4,0.4,0.7,0.7,1.4,0.7c0.7,0,1-0.3,1.4-0.7c0.5-0.5,1.1-1.1,2.4-1.1s1.9,0.6,2.4,1.1c0.5,0.4,0.8,0.7,1.4,0.7s1-0.3,1.4-0.7    c0.5-0.5,1.1-1.1,2.4-1.1c1.2,0,1.9,0.6,2.4,1.1c0.5,0.4,0.8,0.7,1.4,0.7h0.2v1.4h-0.2c-1.2,0-1.8-0.6-2.3-1.1    c-0.5-0.5-0.8-0.7-1.5-0.7c-0.7,0-1,0.3-1.4,0.7c-0.5,0.5-1.2,1.1-2.4,1.1c-1.2,0-1.8-0.6-2.3-1.1C34,45,33.7,44.7,33,44.7    c-0.7,0-1,0.3-1.4,0.7c-0.5,0.5-1.2,1.1-2.4,1.1c-1.2,0-1.8-0.6-2.3-1.1c-0.5-0.5-0.8-0.7-1.5-0.7c-0.7,0-1,0.3-1.4,0.7    c-0.5,0.5-1.2,1.1-2.4,1.1h-0.2V45.1z M21.4,51.4h0.2c0.7,0,1-0.3,1.4-0.7c0.5-0.5,1.1-1.1,2.4-1.1c1.2,0,1.9,0.6,2.4,1.1    c0.4,0.4,0.7,0.7,1.4,0.7c0.7,0,1-0.3,1.4-0.7c0.5-0.5,1.1-1.1,2.4-1.1s1.9,0.6,2.4,1.1c0.5,0.4,0.8,0.7,1.4,0.7s1-0.3,1.4-0.7    c0.5-0.5,1.1-1.1,2.4-1.1c1.2,0,1.9,0.6,2.4,1.1c0.5,0.4,0.8,0.7,1.4,0.7h0.2v1.4h-0.2c-1.2,0-1.8-0.6-2.3-1.1    c-0.5-0.5-0.8-0.7-1.5-0.7c-0.7,0-1,0.3-1.4,0.7c-0.5,0.5-1.2,1.1-2.4,1.1c-1.2,0-1.8-0.6-2.3-1.1C34,51.3,33.7,51,33,51    c-0.7,0-1,0.3-1.4,0.7c-0.5,0.5-1.2,1.1-2.4,1.1c-1.2,0-1.8-0.6-2.3-1.1c-0.5-0.5-0.8-0.7-1.5-0.7c-0.7,0-1,0.3-1.4,0.7    c-0.5,0.5-1.2,1.1-2.4,1.1h-0.2V51.4z M36.8,65.4c-1.2,0-1.8-0.6-2.3-1.1c-0.5-0.4-0.8-0.7-1.4-0.7c-0.7,0-1,0.3-1.4,0.7    c-0.5,0.5-1.2,1.1-2.4,1.1c-1.2,0-1.8-0.6-2.3-1.1c-0.5-0.5-0.8-0.7-1.5-0.7c-0.7,0-1,0.3-1.4,0.7c-0.5,0.5-1.2,1.1-2.4,1.1h-0.2    V64h0.2c0.7,0,1-0.3,1.4-0.7c0.5-0.5,1.1-1.1,2.4-1.1c1.2,0,1.9,0.6,2.4,1.1c0.4,0.4,0.7,0.7,1.4,0.7c0.7,0,1-0.3,1.4-0.7    c0.5-0.5,1.1-1.1,2.4-1.1s1.9,0.6,2.4,1.1c0.5,0.4,0.8,0.7,1.4,0.7s1-0.3,1.4-0.7l1,0.9C38.6,64.8,38,65.4,36.8,65.4z M40.6,57.3    c-0.7,0-1,0.3-1.4,0.7c-0.5,0.5-1.2,1.1-2.4,1.1c-1.2,0-1.8-0.6-2.3-1.1c-0.5-0.4-0.8-0.7-1.4-0.7c-0.7,0-1,0.3-1.4,0.7    c-0.5,0.5-1.2,1.1-2.4,1.1c-1.2,0-1.8-0.6-2.3-1.1c-0.5-0.4-0.8-0.7-1.5-0.7c-0.7,0-1,0.3-1.4,0.7c-0.5,0.5-1.2,1.1-2.4,1.1h-0.2    v-1.3h0.2c0.7,0,1-0.3,1.4-0.7c0.5-0.5,1.1-1.1,2.4-1.1c1.2,0,1.9,0.6,2.4,1.1c0.4,0.4,0.7,0.7,1.4,0.7c0.7,0,1-0.3,1.4-0.7    c0.5-0.5,1.1-1.1,2.4-1.1s1.9,0.6,2.4,1.1c0.5,0.4,0.8,0.7,1.4,0.7s1-0.3,1.4-0.7c0.5-0.5,1.1-1.1,2.4-1.1c1.2,0,1.9,0.6,2.4,1.1    c0.5,0.4,0.8,0.7,1.4,0.7h0.2v1.3h-0.2c-1.2,0-1.8-0.6-2.3-1.1C41.6,57.6,41.3,57.3,40.6,57.3z M46.8,63.2L44,64.7l3.1-5.5    l2.5,2.6l0,0L46.8,63.2z M56.7,55.2l-3.6,3.6L50.9,61l-0.2,0.2l-0.3,0.1v-0.1l-2.8-2.9l0.3-0.6l2.5-2.5l2.7-2.6l0.4-0.5l0.5-0.5    l3.2,3.2L56.7,55.2z M81.9,30.7l1.4,1.4l-0.1,0.1L74.1,43l-0.3-0.5c-0.6-1-0.3-2.2,0-2.7l0.1-0.1l0.7,0.4l-0.1,0.1    c0,0-0.3,0.7-0.2,1.3l7.9-9.3l-0.4-0.4L81.9,30.7z M67.8,37.5l9-8.8c0.5-0.5,1.2-0.8,1.9-0.8c0.7,0,1.4,0.3,1.8,0.7    c0.8,0.8,1,2.5,0.1,3.6l-9.1,9l-0.6,0.5l-3.4-3.5L67.8,37.5z M70,42.4L58.2,54.1l-3.4-3.4L66.6,39L70,42.4z"/><path class="st3" d="M71.4,41.2l9.1-9c1-1.1,0.7-2.8-0.1-3.6c-0.4-0.4-1.1-0.7-1.8-0.7c-0.7,0-1.4,0.2-1.9,0.8l-9,8.8l-0.5,0.6    l3.4,3.5L71.4,41.2z"/><polygon class="st3" points="58.2,54.1 70,42.4 66.6,39 54.8,50.8   "/><polygon class="st3" points="53.5,52.1 53.1,52.6 50.4,55.2 47.9,57.7 47.6,58.3 50.4,61.2 50.4,61.3 50.7,61.2 50.9,61     53.1,58.8 56.7,55.2 57.2,54.8 54,51.6   "/><polygon class="st3" points="47,59.2 44,64.7 46.8,63.2 49.6,61.8 49.6,61.7   "/><path class="st3" d="M91.5,26h-4v-5.5h-31l-4.8,4.7l-4.8-4.7H16V26h-4.1L12,80h79.7L91.5,26z M85.1,32.1v39.8H57l-3.9,3.5v-15    L51,62.5l-0.6,0.2v12.8l-3.9-3.5H18.4v-49h27.5l4.5,4.4v26.2l2.7-2.7l0-23.5l4.5-4.4h27.5V32.1z"/><path d="M24,39.1c0.5-0.4,0.8-0.7,1.4-0.7c0.7,0,1,0.3,1.5,0.7c0.5,0.5,1.1,1.1,2.3,1.1c1.2,0,1.8-0.6,2.4-1.1    c0.4-0.4,0.8-0.7,1.4-0.7c0.7,0,1,0.3,1.4,0.7c0.5,0.5,1.1,1.1,2.3,1.1c1.2,0,1.8-0.6,2.4-1.1c0.5-0.4,0.7-0.7,1.4-0.7    c0.7,0,1,0.3,1.5,0.7c0.5,0.5,1.1,1.1,2.3,1.1h0.2v-1.3h-0.2c-0.7,0-1-0.3-1.4-0.7c-0.5-0.5-1.1-1.1-2.4-1.1    c-1.2,0-1.9,0.6-2.4,1.1c-0.4,0.4-0.7,0.7-1.4,0.7s-1-0.3-1.4-0.7C34.9,37.7,34.2,37,33,37s-1.9,0.6-2.4,1.1    c-0.5,0.4-0.8,0.7-1.4,0.7c-0.7,0-1-0.3-1.4-0.7c-0.5-0.5-1.1-1.1-2.4-1.1c-1.2,0-1.8,0.6-2.4,1.1c-0.5,0.4-0.8,0.7-1.4,0.7h-0.2    v1.3h0.2C22.8,40.2,23.5,39.6,24,39.1z"/><path d="M24,45.4c0.5-0.4,0.8-0.7,1.4-0.7c0.7,0,1,0.3,1.5,0.7c0.5,0.5,1.1,1.1,2.3,1.1c1.2,0,1.8-0.6,2.4-1.1    c0.4-0.4,0.8-0.7,1.4-0.7c0.7,0,1,0.3,1.4,0.7c0.5,0.5,1.1,1.1,2.3,1.1c1.2,0,1.8-0.6,2.4-1.1c0.5-0.4,0.7-0.7,1.4-0.7    c0.7,0,1,0.3,1.5,0.7c0.5,0.5,1.1,1.1,2.3,1.1h0.2v-1.4h-0.2c-0.7,0-1-0.3-1.4-0.7c-0.5-0.5-1.1-1.1-2.4-1.1    c-1.2,0-1.9,0.6-2.4,1.1c-0.4,0.4-0.7,0.7-1.4,0.7s-1-0.3-1.4-0.7c-0.5-0.5-1.1-1.1-2.4-1.1s-1.9,0.6-2.4,1.1    c-0.5,0.4-0.8,0.7-1.4,0.7c-0.7,0-1-0.3-1.4-0.7c-0.5-0.5-1.1-1.1-2.4-1.1c-1.2,0-1.8,0.6-2.4,1.1c-0.5,0.4-0.8,0.7-1.4,0.7h-0.2    v1.4h0.2C22.8,46.5,23.5,45.9,24,45.4z"/><path d="M44.6,59.1v-1.3h-0.2c-0.7,0-1-0.3-1.4-0.7c-0.5-0.5-1.1-1.1-2.4-1.1c-1.2,0-1.9,0.6-2.4,1.1c-0.4,0.4-0.7,0.7-1.4,0.7    s-1-0.3-1.4-0.7c-0.5-0.5-1.1-1.1-2.4-1.1s-1.9,0.6-2.4,1.1c-0.5,0.4-0.8,0.7-1.4,0.7c-0.7,0-1-0.3-1.4-0.7    c-0.5-0.5-1.1-1.1-2.4-1.1c-1.2,0-1.8,0.6-2.4,1.1c-0.5,0.4-0.8,0.7-1.4,0.7h-0.2v1.3h0.2c1.2,0,1.8-0.6,2.4-1.1    c0.5-0.4,0.8-0.7,1.4-0.7c0.7,0,1,0.3,1.5,0.7c0.5,0.5,1.1,1.1,2.3,1.1c1.2,0,1.8-0.6,2.4-1.1c0.4-0.4,0.8-0.7,1.4-0.7    c0.7,0,1,0.3,1.4,0.7c0.5,0.5,1.1,1.1,2.3,1.1c1.2,0,1.8-0.6,2.4-1.1c0.5-0.4,0.7-0.7,1.4-0.7c0.7,0,1,0.3,1.5,0.7    c0.5,0.5,1.1,1.1,2.3,1.1H44.6z"/><path d="M36.8,64c-0.7,0-1-0.3-1.4-0.7c-0.5-0.5-1.1-1.1-2.4-1.1s-1.9,0.6-2.4,1.1c-0.5,0.4-0.8,0.7-1.4,0.7c-0.7,0-1-0.3-1.4-0.7    c-0.5-0.5-1.1-1.1-2.4-1.1c-1.2,0-1.8,0.6-2.4,1.1c-0.5,0.4-0.8,0.7-1.4,0.7h-0.2v1.4h0.2c1.2,0,1.8-0.6,2.4-1.1    c0.5-0.4,0.8-0.7,1.4-0.7c0.7,0,1,0.3,1.5,0.7c0.5,0.5,1.1,1.1,2.3,1.1c1.2,0,1.8-0.6,2.4-1.1c0.4-0.4,0.8-0.7,1.4-0.7    c0.7,0,1,0.3,1.4,0.7c0.5,0.5,1.1,1.1,2.3,1.1c1.2,0,1.8-0.6,2.4-1.1l-1-0.9C37.8,63.8,37.5,64,36.8,64z"/><path d="M24,51.7c0.5-0.4,0.8-0.7,1.4-0.7c0.7,0,1,0.3,1.5,0.7c0.5,0.5,1.1,1.1,2.3,1.1c1.2,0,1.8-0.6,2.4-1.1    C32,51.3,32.3,51,33,51c0.7,0,1,0.3,1.4,0.7c0.5,0.5,1.1,1.1,2.3,1.1c1.2,0,1.8-0.6,2.4-1.1c0.5-0.4,0.7-0.7,1.4-0.7    c0.7,0,1,0.3,1.5,0.7c0.5,0.5,1.1,1.1,2.3,1.1h0.2v-1.4h-0.2c-0.7,0-1-0.3-1.4-0.7c-0.5-0.5-1.1-1.1-2.4-1.1    c-1.2,0-1.9,0.6-2.4,1.1c-0.4,0.4-0.7,0.7-1.4,0.7s-1-0.3-1.4-0.7c-0.5-0.5-1.1-1.1-2.4-1.1s-1.9,0.6-2.4,1.1    c-0.5,0.4-0.8,0.7-1.4,0.7c-0.7,0-1-0.3-1.4-0.7c-0.5-0.5-1.1-1.1-2.4-1.1c-1.2,0-1.8,0.6-2.4,1.1c-0.5,0.4-0.8,0.7-1.4,0.7h-0.2    v1.4h0.2C22.8,52.8,23.5,52.2,24,51.7z"/><path d="M24,32.8c0.5-0.4,0.8-0.7,1.4-0.7c0.7,0,1,0.3,1.5,0.7c0.5,0.5,1.1,1.1,2.3,1.1c1.2,0,1.8-0.6,2.4-1.1    c0.4-0.4,0.8-0.7,1.4-0.7c0.7,0,1,0.3,1.4,0.7c0.5,0.5,1.1,1.1,2.3,1.1c1.2,0,1.8-0.6,2.4-1.1c0.5-0.4,0.7-0.7,1.4-0.7    c0.7,0,1,0.3,1.5,0.7c0.5,0.5,1.1,1.1,2.3,1.1h0.2v-1.4h-0.2c-0.7,0-1-0.3-1.4-0.7c-0.5-0.5-1.1-1.1-2.4-1.1    c-1.2,0-1.9,0.6-2.4,1.1c-0.4,0.4-0.7,0.7-1.4,0.7s-1-0.3-1.4-0.7c-0.5-0.5-1.1-1.1-2.4-1.1s-1.9,0.6-2.4,1.1    c-0.5,0.4-0.8,0.7-1.4,0.7c-0.7,0-1-0.3-1.4-0.7c-0.5-0.5-1.1-1.1-2.4-1.1c-1.2,0-1.8,0.6-2.4,1.1c-0.5,0.4-0.8,0.7-1.4,0.7h-0.2    v1.4h0.2C22.8,33.9,23.5,33.3,24,32.8z"/></g></g><text x="0" y="115" fill="#000000" font-size="5px" font-weight="bold" font-family="'Helvetica Neue', Helvetica, Arial-Unicode, Arial, Sans-serif">Created by MRFA</text><text x="0" y="120" fill="#000000" font-size="5px" font-weight="bold" font-family="'Helvetica Neue', Helvetica, Arial-Unicode, Arial, Sans-serif">from the Noun Project</text></svg>