<svg xmlns="http://www.w3.org/2000/svg" xmlns:xlink="http://www.w3.org/1999/xlink" viewBox="0 0 54 75" version="1.1" x="0px" y="0px"><title>117 -Utility Knife- (construction, tool, work, building)</title><desc>Created with Sketch.</desc><g stroke="none" stroke-width="1" fill="none" fill-rule="evenodd"><g transform="translate(-841.000000, -1720.000000)" fill="#000000"><g transform="translate(841.000000, 1720.000000)"><path d="M39.0178,43.7681 L39.0178,30.9961 L43.2518,29.9771 C43.5478,29.9061 43.7958,29.7031 43.9238,29.4261 C44.0528,29.1501 44.0488,28.8301 43.9128,28.5571 L42.1408,25.0151 C44.1218,21.3901 47.4458,19.2411 51.3908,19.0221 L39.0178,43.7681 Z M35.0178,33.0031 C35.0178,33.5561 34.5708,34.0031 34.0178,34.0031 L31.0178,34.0031 L31.0178,37.0031 C31.0178,37.5561 30.5708,38.0031 30.0178,38.0031 L24.0178,38.0031 C23.4648,38.0031 23.0178,37.5561 23.0178,37.0031 L23.0178,34.0031 L20.0178,34.0031 C19.4648,34.0031 19.0178,33.5561 19.0178,33.0031 L19.0178,27.0031 C19.0178,26.4511 19.4648,26.0031 20.0178,26.0031 L23.0178,26.0031 L23.0178,23.0031 C23.0178,22.4511 23.4648,22.0031 24.0178,22.0031 L30.0178,22.0031 C30.5708,22.0031 31.0178,22.4511 31.0178,23.0031 L31.0178,26.0031 L34.0178,26.0031 C34.5708,26.0031 35.0178,26.4511 35.0178,27.0031 L35.0178,33.0031 Z M27.0178,56.0031 C23.7088,56.0031 21.0178,53.3121 21.0178,50.0031 C21.0178,46.6951 23.7088,44.0031 27.0178,44.0031 C30.3268,44.0031 33.0178,46.6951 33.0178,50.0031 C33.0178,53.3121 30.3268,56.0031 27.0178,56.0031 L27.0178,56.0031 Z M27.0178,4.0031 C30.3268,4.0031 33.0178,6.6951 33.0178,10.0031 C33.0178,13.3121 30.3268,16.0031 27.0178,16.0031 C23.7088,16.0031 21.0178,13.3121 21.0178,10.0031 C21.0178,6.6951 23.7088,4.0031 27.0178,4.0031 L27.0178,4.0031 Z M6.9678,38.3431 L2.0178,40.4821 L2.0178,35.3001 L15.0158,15.3701 C15.0158,18.7271 15.0168,23.7711 15.0178,26.6921 L6.9678,38.3431 Z M53.8688,17.4791 C53.6868,17.1841 53.3658,17.0041 53.0188,17.0041 L52.0748,17.0031 L52.0628,17.0031 C46.8798,17.0031 42.5288,19.7561 40.1228,24.5561 C39.9828,24.8381 39.9828,25.1691 40.1228,25.4521 L41.5608,28.3271 L39.0178,28.9381 L39.0178,12.0031 C39.0178,5.3861 33.6348,0.0031 27.0178,0.0031 C20.5098,0.0031 15.2068,5.2141 15.0338,11.6811 L0.1798,34.4571 C0.0748,34.6201 0.0178,34.8091 0.0178,35.0031 L0.0178,42.0031 C0.0178,42.3401 0.1868,42.6541 0.4688,42.8391 C0.6338,42.9481 0.8258,43.0031 1.0178,43.0031 C1.1528,43.0031 1.2878,42.9761 1.4138,42.9211 L8.0248,40.0661 C8.1968,39.9921 8.3438,39.8711 8.4518,39.7161 L15.0178,30.2111 L15.0178,48.0031 C15.0178,54.6211 20.4008,60.0031 27.0178,60.0031 C33.5458,60.0031 38.8618,54.7621 39.0048,48.2671 L53.9128,18.4521 C54.0678,18.1421 54.0508,17.7741 53.8688,17.4791 L53.8688,17.4791 Z"/><path d="M27.0178,46.0035 C24.8118,46.0035 23.0178,47.7975 23.0178,50.0035 C23.0178,52.2095 24.8118,54.0035 27.0178,54.0035 C29.2238,54.0035 31.0178,52.2095 31.0178,50.0035 C31.0178,47.7975 29.2238,46.0035 27.0178,46.0035"/><path d="M27.0178,14.0035 C29.2238,14.0035 31.0178,12.2095 31.0178,10.0035 C31.0178,7.7975 29.2238,6.0035 27.0178,6.0035 C24.8118,6.0035 23.0178,7.7975 23.0178,10.0035 C23.0178,12.2095 24.8118,14.0035 27.0178,14.0035"/><path d="M29.0178,27.0035 L29.0178,24.0035 L25.0178,24.0035 L25.0178,27.0035 C25.0178,27.5565 24.5708,28.0035 24.0178,28.0035 L21.0178,28.0035 L21.0178,32.0035 L24.0178,32.0035 C24.5708,32.0035 25.0178,32.4505 25.0178,33.0035 L25.0178,36.0035 L29.0178,36.0035 L29.0178,33.0035 C29.0178,32.4505 29.4648,32.0035 30.0178,32.0035 L33.0178,32.0035 L33.0178,28.0035 L30.0178,28.0035 C29.4648,28.0035 29.0178,27.5565 29.0178,27.0035"/></g></g></g><text x="0" y="75" fill="#000000" font-size="5px" font-weight="bold" font-family="'Helvetica Neue', Helvetica, Arial-Unicode, Arial, Sans-serif">Created by Oliviu Stoian</text><text x="0" y="80" fill="#000000" font-size="5px" font-weight="bold" font-family="'Helvetica Neue', Helvetica, Arial-Unicode, Arial, Sans-serif">from the Noun Project</text></svg>